<?xml version="1.0" standalone="no"?>
<!DOCTYPE svg PUBLIC "-//W3C//DTD SVG 20010904//EN"
 "http://www.w3.org/TR/2001/REC-SVG-20010904/DTD/svg10.dtd">
<svg version="1.0" xmlns="http://www.w3.org/2000/svg"
 width="1600.000000pt" height="1200.000000pt" viewBox="0 0 1600.000000 1200.000000"
 preserveAspectRatio="xMidYMid meet">

<g transform="translate(0.000000,1200.000000) scale(0.100000,-0.100000)"
fill="#000000" stroke="none">
<path d="M0 6000 l0 -6000 8000 0 8000 0 0 6000 0 6000 -8000 0 -8000 0 0
-6000z m8024 2438 c23 -32 20 -54 -9 -76 -21 -17 -25 -28 -25 -74 0 -126 38
-236 92 -264 69 -36 129 -4 154 82 15 53 15 68 0 105 -7 16 16 49 34 49 11 0
40 -29 40 -40 0 -5 -8 -16 -17 -25 -24 -24 -21 -130 5 -189 34 -75 123 -100
193 -53 34 23 81 98 95 151 l7 29 -41 -5 -41 -6 44 43 c43 41 44 44 34 80 -14
51 -6 53 27 6 32 -45 32 -45 89 -31 22 5 41 7 43 5 2 -2 -15 -16 -38 -31 l-42
-28 7 -55 6 -56 -27 40 -28 40 -8 -30 c-4 -16 -23 -194 -43 -395 -20 -200 -38
-366 -39 -368 -2 -1 -18 20 -36 47 -193 302 -693 361 -962 113 -34 -31 -77
-81 -95 -110 -19 -30 -36 -52 -38 -50 -3 3 -18 149 -64 606 -14 141 -20 174
-35 185 -34 25 0 79 39 63 14 -5 16 -14 11 -48 -9 -52 30 -136 79 -174 71 -54
168 -37 204 35 30 57 37 143 16 179 -19 32 -15 59 10 68 29 11 46 -15 40 -61
-5 -31 -1 -53 15 -88 30 -63 62 -87 115 -87 57 0 97 40 119 119 21 75 22 211
1 211 -16 0 -35 30 -35 56 0 50 76 73 104 32z m32 -834 c19 -5 20 -9 12 -52
l-10 -47 -98 0 -99 0 -6 33 c-3 18 -9 40 -11 47 -4 9 4 15 23 18 44 6 166 7
189 1z m352 -182 l65 -66 -34 -28 c-18 -15 -38 -28 -45 -28 -6 0 -26 17 -45
38 -20 20 -50 50 -68 65 l-33 28 26 40 c33 49 40 46 134 -49z m-763 32 l27
-35 -63 -67 c-35 -37 -64 -69 -66 -71 -1 -2 -21 8 -43 23 -35 23 -39 29 -29
47 13 26 126 139 138 139 5 0 21 -16 36 -36z m444 -191 c42 -16 44 -16 57 2
12 16 14 7 14 -74 0 -94 -12 -114 -24 -40 -5 30 -18 53 -45 81 -36 36 -42 38
-100 38 -56 0 -64 -3 -100 -35 -67 -61 -107 -175 -61 -175 29 0 76 -26 84 -45
9 -24 -37 -65 -74 -65 -23 0 -30 -4 -30 -20 0 -33 31 -113 56 -147 47 -62 157
-80 205 -32 16 16 19 31 17 72 -3 51 -4 52 -38 58 -19 4 15 6 75 6 61 0 95 -2
78 -4 -32 -4 -33 -6 -33 -53 0 -53 -11 -69 -63 -98 -23 -12 -55 -17 -117 -17
-75 0 -91 4 -138 29 -59 33 -107 96 -124 163 -9 38 -14 43 -38 43 -30 0 -80
34 -80 55 0 21 50 55 81 55 23 0 29 6 39 38 49 156 201 225 359 165z m-734 6
l43 -11 -12 -36 -13 -37 -99 3 c-80 3 -110 -1 -157 -17 -260 -91 -354 -406
-188 -626 140 -185 414 -208 591 -49 l35 32 34 -27 33 -27 -49 -45 c-95 -85
-209 -129 -333 -129 -134 0 -250 48 -346 144 -260 260 -156 693 196 813 73 25
191 30 265 12z m1466 -5 c169 -50 301 -183 345 -349 19 -68 17 -190 -2 -256
-65 -219 -252 -359 -480 -359 -122 0 -268 62 -344 145 l-25 27 34 29 34 28 44
-40 c25 -22 70 -53 101 -67 50 -23 70 -26 162 -27 99 0 110 2 170 32 83 41
152 110 193 193 30 60 32 72 32 170 0 97 -2 110 -31 171 -40 83 -110 153 -194
193 -60 29 -73 31 -179 32 l-113 0 -14 33 c-18 42 -19 39 19 50 52 15 188 12
248 -5z m-1654 -126 c-3 -8 -6 -5 -6 6 -1 11 2 17 5 13 3 -3 4 -12 1 -19z m40
-15 c-3 -10 -5 -4 -5 12 0 17 2 24 5 18 2 -7 2 -21 0 -30z m1520 5 c-3 -7 -5
-2 -5 12 0 14 2 19 5 13 2 -7 2 -19 0 -25z m40 10 c-3 -8 -6 -5 -6 6 -1 11 2
17 5 13 3 -3 4 -12 1 -19z m-1450 -10 c-3 -8 -6 -5 -6 6 -1 11 2 17 5 13 3 -3
4 -12 1 -19z m1300 -10 c-3 -7 -5 -2 -5 12 0 14 2 19 5 13 2 -7 2 -19 0 -25z
m70 10 c-3 -8 -6 -5 -6 6 -1 11 2 17 5 13 3 -3 4 -12 1 -19z m-30 -10 c-3 -8
-6 -5 -6 6 -1 11 2 17 5 13 3 -3 4 -12 1 -19z m-1520 -10 c-3 -8 -6 -5 -6 6
-1 11 2 17 5 13 3 -3 4 -12 1 -19z m1438 -103 c0 -57 -2 -106 -5 -108 -3 -3
-25 -1 -50 4 l-45 10 0 99 -1 100 41 8 c23 5 44 5 50 0 6 -5 10 -56 10 -113z
m222 103 c-3 -8 -6 -5 -6 6 -1 11 2 17 5 13 3 -3 4 -12 1 -19z m43 14 c0 -5
-7 -17 -15 -28 -14 -18 -14 -17 -4 9 12 27 19 34 19 19z m-1761 -57 c0 -5 -6
1 -14 15 -8 14 -14 30 -14 35 0 6 6 -1 14 -15 8 -14 14 -29 14 -35z m357 29
l29 -6 0 -98 0 -99 -45 -10 c-25 -5 -46 -8 -48 -6 -8 8 -14 174 -8 199 7 27
20 31 72 20z m1427 -9 c-3 -9 -8 -14 -10 -11 -3 3 -2 9 2 15 9 16 15 13 8 -4z
m-1815 -31 c-4 -3 -12 5 -18 18 -12 22 -12 22 6 6 10 -10 15 -20 12 -24z
m1852 15 c-7 -11 -14 -18 -17 -15 -3 3 0 12 7 21 18 21 23 19 10 -6z m-1811
-86 c2 -2 2 -3 -1 -3 -10 0 -83 62 -92 78 -5 10 13 -3 40 -27 27 -25 51 -46
53 -48z m1841 66 c-7 -11 -14 -18 -17 -15 -3 3 0 12 7 21 18 21 23 19 10 -6z
m-1703 -11 c-3 -8 -6 -5 -6 6 -1 11 2 17 5 13 3 -3 4 -12 1 -19z m30 -10 c-3
-7 -5 -2 -5 12 0 14 2 19 5 13 2 -7 2 -19 0 -25z m1420 0 c-3 -7 -5 -2 -5 12
0 14 2 19 5 13 2 -7 2 -19 0 -25z m86 12 c-3 -12 -8 -19 -11 -16 -5 6 5 36 12
36 2 0 2 -9 -1 -20z m-1586 -12 c-3 -8 -6 -5 -6 6 -1 11 2 17 5 13 3 -3 4 -12
1 -19z m-177 -20 c0 -12 -6 -9 -26 13 -19 22 -19 22 4 8 12 -8 22 -17 22 -21z
m1960 17 c-7 -8 -17 -15 -23 -15 -6 0 -2 7 9 15 25 19 30 19 14 0z m-60 1 c0
-2 -8 -10 -17 -17 -16 -13 -17 -12 -4 4 13 16 21 21 21 13z m-1920 -48 c0 -12
-6 -9 -26 13 -19 22 -19 22 4 8 12 -8 22 -17 22 -21z m1860 28 c0 -3 -4 -8
-10 -11 -5 -3 -10 -1 -10 4 0 6 5 11 10 11 6 0 10 -2 10 -4z m140 -11 c-7 -8
-17 -15 -23 -15 -6 0 -2 7 9 15 25 19 30 19 14 0z m-91 -18 c-2 -1 -13 -9 -24
-17 -19 -14 -19 -14 -6 3 7 9 18 17 24 17 6 0 8 -1 6 -3z m106 -17 c-3 -5 -12
-10 -18 -10 -7 0 -6 4 3 10 19 12 23 12 15 0z m-2065 -30 c8 -5 11 -10 5 -10
-5 0 -17 5 -25 10 -8 5 -10 10 -5 10 6 0 17 -5 25 -10z m293 -2 c4 -10 8 -10
15 0 13 19 46 11 50 -11 4 -20 -42 -97 -58 -97 -5 0 -21 17 -35 37 -35 52 -33
83 6 83 9 0 20 -6 22 -12z m1499 -15 c34 -38 40 -59 22 -78 -13 -13 -19 -13
-32 -3 -13 11 -15 10 -10 -9 4 -16 2 -23 -9 -23 -12 0 -14 7 -8 27 6 26 5 27
-12 12 -45 -40 -59 20 -17 70 14 17 29 31 33 31 4 0 19 -12 33 -27z m298 17
c-8 -5 -19 -10 -25 -10 -5 0 -3 5 5 10 8 5 20 10 25 10 6 0 3 -5 -5 -10z
m-110 -4 c0 -2 -7 -7 -16 -10 -8 -3 -12 -2 -9 4 6 10 25 14 25 6z m-1886 -25
c4 -5 -3 -7 -14 -4 -23 6 -26 13 -6 13 8 0 17 -4 20 -9z m1906 5 c0 -2 -7 -7
-16 -10 -8 -3 -12 -2 -9 4 6 10 25 14 25 6z m-2005 -16 c3 -6 -1 -7 -9 -4 -18
7 -21 14 -7 14 6 0 13 -4 16 -10z m90 -18 c-3 -3 -11 0 -18 7 -9 10 -8 11 6 5
10 -3 15 -9 12 -12z m-112 -49 c-7 -2 -21 -2 -30 0 -10 3 -4 5 12 5 17 0 24
-2 18 -5z m100 0 c-7 -2 -19 -2 -25 0 -7 3 -2 5 12 5 14 0 19 -2 13 -5z m1944
1 c-3 -3 -12 -4 -19 -1 -8 3 -5 6 6 6 11 1 17 -2 13 -5z m116 -1 c-7 -2 -21
-2 -30 0 -10 3 -4 5 12 5 17 0 24 -2 18 -5z m-2160 -40 c-7 -2 -19 -2 -25 0
-7 3 -2 5 12 5 14 0 19 -2 13 -5z m2160 0 c-7 -2 -21 -2 -30 0 -10 3 -4 5 12
5 17 0 24 -2 18 -5z m-2066 -9 c-3 -3 -12 -4 -19 -1 -8 3 -5 6 6 6 11 1 17 -2
13 -5z m1950 0 c-3 -3 -12 -4 -19 -1 -8 3 -5 6 6 6 11 1 17 -2 13 -5z m-1681
-50 l27 -35 -31 -32 -32 -32 -31 32 -32 31 28 36 c15 20 31 36 36 36 4 0 20
-16 35 -36z m1449 6 c0 -17 7 -27 20 -30 25 -7 32 -45 9 -54 -9 -3 -23 -1 -30
5 -11 9 -14 7 -14 -10 0 -11 -4 -21 -10 -21 -5 0 -10 7 -10 16 0 10 -6 13 -17
10 -10 -3 -24 -2 -31 3 -20 12 -10 46 15 49 14 2 20 8 16 18 -9 24 5 46 29 42
17 -2 23 -10 23 -28z m-1790 -10 c-3 -5 -14 -10 -23 -9 -14 0 -13 2 3 9 27 11
27 11 20 0z m2106 -8 c-7 -2 -18 1 -23 6 -8 8 -4 9 13 5 13 -4 18 -8 10 -11z
m-591 -18 c23 -15 37 -31 33 -38 -18 -31 -80 -100 -113 -126 l-38 -30 -26 41
-27 40 61 61 c33 34 60 65 60 69 0 14 7 11 50 -17z m-841 -42 c25 -27 57 -56
70 -65 l24 -16 -27 -41 -27 -41 -27 17 c-36 23 -78 61 -113 106 l-30 37 38 25
c21 14 39 26 41 26 2 0 25 -22 51 -48z m1432 20 c-7 -2 -18 1 -23 6 -8 8 -4 9
13 5 13 -4 18 -8 10 -11z m-2001 4 c0 -2 -7 -7 -16 -10 -8 -3 -12 -2 -9 4 6
10 25 14 25 6z m5 -26 c-3 -5 -12 -10 -18 -10 -7 0 -6 4 3 10 19 12 23 12 15
0z m-105 -4 c0 -2 -7 -7 -16 -10 -8 -3 -12 -2 -9 4 6 10 25 14 25 6z m2095 -6
c3 -6 -1 -7 -9 -4 -18 7 -21 14 -7 14 6 0 13 -4 16 -10z m-134 -17 c13 -16 12
-17 -3 -4 -10 7 -18 15 -18 17 0 8 8 3 21 -13z m-1441 -3 c0 -5 -2 -10 -4 -10
-3 0 -8 5 -11 10 -3 6 -1 10 4 10 6 0 11 -4 11 -10z m1050 7 c0 -2 -10 -12
-21 -23 -22 -19 -22 -19 -8 4 12 19 29 30 29 19z m-1550 -17 c-8 -5 -19 -10
-25 -10 -5 0 -3 5 5 10 8 5 20 10 25 10 6 0 3 -5 -5 -10z m1925 -8 c-3 -3 -11
0 -18 7 -9 10 -8 11 6 5 10 -3 15 -9 12 -12z m130 0 c-3 -3 -11 0 -18 7 -9 10
-8 11 6 5 10 -3 15 -9 12 -12z m-1935 4 c0 -3 -4 -8 -10 -11 -5 -3 -10 -1 -10
4 0 6 5 11 10 11 6 0 10 -2 10 -4z m13 -21 c-3 -9 -8 -14 -10 -11 -3 3 -2 9 2
15 9 16 15 13 8 -4z m1772 5 c3 -5 1 -10 -4 -10 -6 0 -11 5 -11 10 0 6 2 10 4
10 3 0 8 -4 11 -10z m-1465 -35 c0 -5 -5 -3 -10 5 -5 8 -10 20 -10 25 0 6 5 3
10 -5 5 -8 10 -19 10 -25z m1161 12 c-10 -9 -11 -8 -5 6 3 10 9 15 12 12 3 -3
0 -11 -7 -18z m290 -4 c13 -16 12 -17 -3 -4 -10 7 -18 15 -18 17 0 8 8 3 21
-13z m-1714 -15 c-3 -8 -6 -5 -6 6 -1 11 2 17 5 13 3 -3 4 -12 1 -19z m1662
-8 c11 -24 11 -24 -3 -6 -9 11 -16 24 -16 30 0 12 5 7 19 -24z m25 14 c3 -8 2
-12 -4 -9 -6 3 -10 10 -10 16 0 14 7 11 14 -7z m-1824 2 c0 -2 -8 -10 -17 -17
-16 -13 -17 -12 -4 4 13 16 21 21 21 13z m490 -31 l25 -30 -27 24 c-16 14 -28
29 -28 34 0 6 1 8 3 6 1 -2 13 -17 27 -34z m955 25 c-3 -5 -11 -10 -16 -10 -6
0 -7 5 -4 10 3 6 11 10 16 10 6 0 7 -4 4 -10z m526 -7 c13 -16 12 -17 -3 -4
-10 7 -18 15 -18 17 0 8 8 3 21 -13z m-1790 -16 c-10 -9 -11 -8 -5 6 3 10 9
15 12 12 3 -3 0 -11 -7 -18z m86 1 c-3 -8 -6 -5 -6 6 -1 11 2 17 5 13 3 -3 4
-12 1 -19z m170 15 c-4 -3 3 -18 15 -32 l23 -26 -27 24 c-24 21 -29 41 -11 41
4 0 3 -3 0 -7z m1024 -26 l-24 -22 19 27 c10 14 21 24 23 22 3 -3 -6 -15 -18
-27z m226 11 c-3 -8 -6 -5 -6 6 -1 11 2 17 5 13 3 -3 4 -12 1 -19z m57 6 c3
-8 2 -12 -4 -9 -6 3 -10 10 -10 16 0 14 7 11 14 -7z m-1714 2 c0 -2 -8 -10
-17 -17 -16 -13 -17 -12 -4 4 13 16 21 21 21 13z m1911 -13 c13 -16 12 -17 -3
-4 -10 7 -18 15 -18 17 0 8 8 3 21 -13z m-421 4 c0 -2 -10 -12 -22 -23 l-23
-19 19 23 c18 21 26 27 26 19z m-1470 -27 c-6 -11 -13 -20 -16 -20 -2 0 0 9 6
20 6 11 13 20 16 20 2 0 0 -9 -6 -20z m1860 0 c6 -11 8 -20 6 -20 -3 0 -10 9
-16 20 -6 11 -8 20 -6 20 3 0 10 -9 16 -20z m-1826 -15 c-9 -14 -18 -25 -21
-25 -5 0 5 18 20 38 17 22 18 13 1 -13z m1796 -6 c15 -28 5 -23 -15 7 -9 15
-12 23 -6 20 6 -4 16 -16 21 -27z m-1770 -16 c-11 -17 -11 -17 -6 0 3 10 6 24
7 30 0 9 2 9 5 0 3 -7 0 -20 -6 -30z m988 -15 c9 -46 9 -46 -21 -52 -37 -8
-171 -8 -190 -1 -11 5 -12 15 -5 53 l10 47 98 0 98 0 10 -47z m-950 1 c-6 -16
-12 -28 -14 -26 -5 5 13 57 20 57 3 0 0 -14 -6 -31z m252 11 c6 -11 8 -20 6
-20 -3 0 -10 9 -16 20 -6 11 -8 20 -6 20 3 0 10 -9 16 -20z m1448 -5 c-3 -3
-9 2 -12 12 -6 14 -5 15 5 6 7 -7 10 -15 7 -18z m-1667 -16 c-5 -13 -10 -19
-10 -12 -1 15 10 45 15 40 3 -2 0 -15 -5 -28z m189 -4 c0 -5 -5 -3 -10 5 -5 8
-10 20 -10 25 0 6 5 3 10 -5 5 -8 10 -19 10 -25z m1221 8 c-12 -20 -14 -14 -5
12 4 9 9 14 11 11 3 -2 0 -13 -6 -23z m189 -17 c0 -26 -6 -18 -14 19 -5 22 -4
26 4 15 5 -8 10 -24 10 -34z m39 -1 c0 -5 -4 -3 -9 5 -5 8 -9 22 -9 30 0 16
17 -16 18 -35z m-1602 -2 c-3 -10 -5 -4 -5 12 0 17 2 24 5 18 2 -7 2 -21 0
-30z m70 15 c-3 -8 -6 -5 -6 6 -1 11 2 17 5 13 3 -3 4 -12 1 -19z m40 -10 c-3
-7 -5 -2 -5 12 0 14 2 19 5 13 2 -7 2 -19 0 -25z m1300 0 c-3 -7 -5 -2 -5 12
0 14 2 19 5 13 2 -7 2 -19 0 -25z m110 -5 c-3 -10 -5 -4 -5 12 0 17 2 24 5 18
2 -7 2 -21 0 -30z m-40 5 c-3 -8 -6 -5 -6 6 -1 11 2 17 5 13 3 -3 4 -12 1 -19z
m-824 -200 l37 -11 0 -68 0 -68 -52 24 c-57 27 -126 33 -146 13 -26 -26 -14
-58 34 -86 181 -106 204 -131 204 -225 0 -86 -35 -139 -112 -172 -44 -18 -155
-19 -213 -1 l-40 12 -6 74 c-3 41 -6 76 -5 77 1 1 25 -9 53 -23 91 -45 193
-31 193 26 0 22 -43 61 -110 99 -30 17 -65 40 -77 50 -85 72 -83 208 4 262 64
40 140 45 236 17z m427 -293 l0 -295 -70 0 -70 0 0 295 0 295 70 0 70 0 0
-295z m-1659 254 c42 -23 44 -25 41 -69 -2 -25 -5 -57 -8 -72 l-5 -27 -44 31
c-59 42 -127 49 -188 19 -116 -56 -127 -245 -17 -318 59 -41 189 -23 252 34
17 15 18 15 18 -4 0 -11 -3 -48 -7 -83 l-6 -63 -46 -20 c-68 -31 -189 -30
-253 1 -102 50 -167 148 -176 263 -11 153 71 279 211 325 64 21 174 13 228
-17z m634 -269 c75 -157 139 -291 142 -297 4 -10 -13 -13 -68 -13 l-74 0 -18
45 -19 45 -117 0 -117 0 -22 -45 -22 -45 -70 0 -70 0 36 73 c20 39 88 177 151
306 66 136 117 231 122 225 5 -5 70 -137 146 -294z m1460 129 l180 -170 3 161
2 160 65 0 65 0 0 -305 c0 -168 -4 -305 -8 -305 -5 0 -88 74 -184 165 -97 91
-179 165 -182 165 -3 0 -6 -70 -6 -155 l0 -155 -65 0 -65 0 0 305 c0 168 3
305 8 305 4 -1 88 -77 187 -171z m936 143 c64 -31 117 -85 148 -151 21 -46 25
-71 25 -136 0 -105 -27 -167 -99 -234 -196 -178 -495 -37 -495 234 0 141 77
253 207 301 55 20 157 14 214 -14z m-3591 -122 c0 -20 -7 -20 -350 -20 -343 0
-350 0 -350 20 0 20 7 20 350 20 343 0 350 0 350 -20z m4580 0 c0 -20 -7 -20
-350 -20 -343 0 -350 0 -350 20 0 20 7 20 350 20 343 0 350 0 350 -20z m-4600
-165 l0 -35 -405 0 -405 0 0 35 0 35 405 0 405 0 0 -35z m4740 0 l0 -35 -410
0 -410 0 0 35 0 35 410 0 410 0 0 -35z m-4720 -170 c0 -13 -46 -15 -350 -15
-304 0 -350 2 -350 15 0 13 46 15 350 15 304 0 350 -2 350 -15z m4590 0 c0
-13 -46 -15 -355 -15 -309 0 -355 2 -355 15 0 13 46 15 355 15 309 0 355 -2
355 -15z m-5070 -257 c65 -16 189 -74 196 -93 4 -9 1 -74 -6 -144 l-13 -129
-52 43 c-29 23 -79 55 -111 71 -52 26 -70 29 -154 29 -113 0 -169 -21 -238
-88 -78 -76 -112 -157 -112 -268 0 -236 190 -393 424 -349 l66 12 0 84 0 84
-105 0 -105 0 0 115 0 115 235 0 235 0 -2 -276 -3 -277 -85 -34 c-278 -113
-530 -92 -719 58 -74 59 -146 165 -178 263 -23 70 -26 97 -26 206 0 136 16
206 70 300 133 231 409 343 683 278z m1130 -3 c228 -61 386 -246 420 -495 36
-265 -93 -514 -325 -625 -273 -130 -595 -19 -739 255 -53 100 -69 182 -63 320
5 133 27 207 87 297 114 173 274 262 470 263 52 0 120 -7 150 -15z m3816 -247
c153 -144 308 -290 344 -325 l65 -62 3 309 2 310 125 0 125 0 0 -585 c0 -462
-3 -585 -12 -585 -7 1 -170 149 -363 330 l-350 328 -3 -304 -2 -304 -120 0
-120 0 0 575 c0 475 2 575 13 575 8 0 139 -118 293 -262z m-2934 -210 l3 -443
218 -3 217 -2 0 -115 0 -115 -350 0 -350 0 0 560 0 560 130 0 130 0 2 -442z
m1088 418 c143 -35 255 -101 333 -194 87 -103 128 -262 108 -416 -26 -196
-132 -341 -312 -426 -107 -50 -177 -60 -426 -60 l-223 0 0 561 0 562 228 -6
c157 -4 247 -10 292 -21z m1320 -91 l0 -115 -215 0 -216 0 3 -102 3 -103 183
-3 182 -2 0 -110 0 -110 -182 -2 -183 -3 -3 -112 -3 -113 221 0 220 0 0 -115
0 -115 -345 0 -345 0 0 560 0 560 340 0 340 0 0 -115z m1270 -1200 c0 -13
-369 -15 -3265 -15 -2896 0 -3265 2 -3265 15 0 13 369 15 3265 15 2896 0 3265
-2 3265 -15z m20 -115 c0 -20 -7 -20 -3290 -20 -3283 0 -3290 0 -3290 20 0 20
7 20 3290 20 3283 0 3290 0 3290 -20z"/>
<path d="M7952 7908 c-7 -30 -13 -34 -51 -38 l-43 -5 32 -19 c33 -19 35 -35
14 -91 -7 -17 -3 -17 28 7 l35 27 36 -25 36 -24 -14 40 c-14 39 -14 40 18 62
l32 23 -40 5 c-34 4 -41 9 -49 38 -5 17 -13 32 -17 32 -5 0 -12 -15 -17 -32z"/>
<path d="M7711 7882 c-12 -28 -18 -32 -50 -32 l-36 -1 28 -17 c26 -15 28 -21
22 -56 l-6 -38 28 20 c27 20 28 20 55 0 30 -21 34 -15 19 26 -9 22 -6 27 22
45 l32 21 -37 0 c-33 0 -40 4 -51 32 l-13 32 -13 -32z"/>
<path d="M8200 7883 c-10 -29 -17 -33 -47 -33 l-36 0 27 -21 c23 -18 26 -26
20 -57 l-7 -36 29 21 c29 21 29 21 56 1 29 -20 35 -13 18 27 -6 15 -1 25 19
42 l26 22 -32 1 c-27 0 -35 6 -47 33 l-14 32 -12 -32z"/>
<path d="M7506 7853 c-5 -16 -15 -23 -33 -23 -25 0 -26 -1 -8 -20 12 -14 15
-27 10 -47 -6 -26 -6 -27 13 -10 10 9 22 17 27 17 5 0 17 -8 27 -17 19 -17 19
-16 13 10 -5 20 -2 33 10 47 18 19 17 20 -7 20 -16 0 -28 8 -35 23 l-10 22 -7
-22z"/>
<path d="M8414 7853 c-4 -16 -14 -23 -30 -23 -27 0 -32 -15 -8 -24 12 -5 14
-14 9 -38 -7 -33 -7 -33 13 -14 20 17 23 17 46 3 24 -16 24 -16 17 11 -6 21
-3 31 13 44 21 17 21 17 -5 18 -17 0 -30 8 -37 23 l-11 22 -7 -22z"/>
<path d="M7747 7046 c-15 -33 -19 -35 -42 -26 -18 7 -33 7 -46 -1 -31 -16 -11
-32 32 -25 36 6 41 4 57 -23 l18 -29 13 29 c12 27 15 28 55 23 48 -7 69 8 37
25 -13 7 -28 8 -45 2 -27 -11 -39 -2 -54 38 -7 21 -9 20 -25 -13z"/>
<path d="M7068 5888 l-35 -83 70 -3 c38 -2 71 -1 74 1 5 6 -60 167 -68 167 -3
0 -22 -37 -41 -82z"/>
<path d="M9494 6079 c-58 -17 -114 -103 -114 -174 0 -46 24 -102 60 -137 34
-35 43 -38 91 -38 69 0 110 24 138 82 41 86 19 200 -49 249 -32 23 -86 31
-126 18z"/>
<path d="M6463 5221 c-57 -26 -120 -92 -152 -160 -23 -49 -26 -68 -26 -161 0
-92 3 -112 26 -160 33 -71 79 -123 138 -158 40 -23 57 -27 126 -27 96 1 140
20 204 90 71 77 86 121 86 255 0 100 -3 121 -23 161 -59 119 -148 179 -266
179 -48 0 -85 -7 -113 -19z"/>
<path d="M8430 4901 c0 -286 2 -322 16 -328 30 -11 194 15 247 40 63 29 118
83 148 146 19 37 23 64 23 136 1 79 -2 97 -27 147 -55 111 -154 167 -314 176
l-93 5 0 -322z"/>
</g>
</svg>
